<svg width="24" height="24" viewBox="0 0 24 24" fill="none" xmlns="http://www.w3.org/2000/svg">
<path fill-rule="evenodd" clip-rule="evenodd" d="M11.1517 2.75161C11.3768 2.52665 11.6819 2.40027 12.0001 2.40027C12.3183 2.40027 12.6235 2.52665 12.8485 2.75161L21.2485 11.1516C21.4163 11.3194 21.5306 11.5332 21.5768 11.766C21.6231 11.9987 21.5994 12.24 21.5085 12.4592C21.4177 12.6784 21.264 12.8658 21.0667 12.9977C20.8694 13.1296 20.6374 13.2 20.4001 13.2H19.2001V20.4C19.2001 20.7183 19.0737 21.0235 18.8487 21.2485C18.6236 21.4736 18.3184 21.6 18.0001 21.6H15.6001C15.2819 21.6 14.9767 21.4736 14.7516 21.2485C14.5266 21.0235 14.4001 20.7183 14.4001 20.4V16.8C14.4001 16.4818 14.2737 16.1765 14.0487 15.9515C13.8236 15.7264 13.5184 15.6 13.2001 15.6H10.8001C10.4819 15.6 10.1767 15.7264 9.95161 15.9515C9.72656 16.1765 9.60013 16.4818 9.60013 16.8V20.4C9.60013 20.7183 9.47371 21.0235 9.24866 21.2485C9.02362 21.4736 8.71839 21.6 8.40013 21.6H6.00013C5.68187 21.6 5.37665 21.4736 5.15161 21.2485C4.92656 21.0235 4.80013 20.7183 4.80013 20.4V13.2H3.60013C3.36283 13.2 3.13088 13.1296 2.93358 12.9977C2.73629 12.8658 2.58253 12.6784 2.49172 12.4592C2.40092 12.24 2.37715 11.9987 2.42343 11.766C2.46972 11.5332 2.58396 11.3194 2.75173 11.1516L11.1517 2.75161Z" fill="#18333E"/>
</svg>
