<svg width="96" height="58" viewBox="0 0 96 58" fill="none" xmlns="http://www.w3.org/2000/svg">
<path d="M3.872 40.664L3.808 39.272H7.936C7.97867 39.336 8.02133 39.432 8.064 39.56C8.10667 39.6773 8.128 39.8 8.128 39.928C8.128 40.1627 8.06933 40.344 7.952 40.472C7.84533 40.6 7.696 40.664 7.504 40.664H3.872ZM4.64 39.272L4.688 40.664H0.56C0.517333 40.6 0.474667 40.5093 0.432 40.392C0.389333 40.264 0.368 40.1307 0.368 39.992C0.368 39.7573 0.421333 39.5813 0.528 39.464C0.645333 39.336 0.8 39.272 0.992 39.272H4.64ZM3.408 40.232H5.072V48.968C5.008 48.9893 4.90133 49.016 4.752 49.048C4.60267 49.08 4.45333 49.096 4.304 49.096C3.99467 49.096 3.76533 49.0373 3.616 48.92C3.47733 48.792 3.408 48.5893 3.408 48.312V40.232ZM11.492 44.104H13.076C13.78 44.104 14.3347 43.9493 14.74 43.64C15.1453 43.3307 15.348 42.8773 15.348 42.28C15.348 41.6827 15.14 41.2293 14.724 40.92C14.308 40.6107 13.7 40.456 12.9 40.456C12.6547 40.456 12.4093 40.4667 12.164 40.488C11.9187 40.5093 11.6947 40.5413 11.492 40.584V44.104ZM13.14 45.448H9.828V40.04C9.828 39.848 9.876 39.704 9.972 39.608C10.0787 39.512 10.2227 39.432 10.404 39.368C10.724 39.272 11.1133 39.2027 11.572 39.16C12.0307 39.1067 12.4893 39.08 12.948 39.08C14.3133 39.08 15.3373 39.3627 16.02 39.928C16.7027 40.4933 17.044 41.272 17.044 42.264C17.044 42.904 16.8893 43.464 16.58 43.944C16.2707 44.424 15.828 44.7973 15.252 45.064C14.676 45.32 13.972 45.448 13.14 45.448ZM13.028 44.984L14.372 44.504C14.66 44.856 14.9533 45.224 15.252 45.608C15.5507 45.992 15.8387 46.3653 16.116 46.728C16.404 47.08 16.6547 47.4053 16.868 47.704C17.092 47.992 17.268 48.2213 17.396 48.392C17.332 48.616 17.2093 48.7973 17.028 48.936C16.8573 49.064 16.6707 49.128 16.468 49.128C16.212 49.128 16.0093 49.0693 15.86 48.952C15.7213 48.824 15.5773 48.6587 15.428 48.456L13.028 44.984ZM9.828 44.92H11.508V48.968C11.4333 48.9893 11.3267 49.016 11.188 49.048C11.0493 49.08 10.9 49.096 10.74 49.096C10.42 49.096 10.1853 49.0373 10.036 48.92C9.89733 48.792 9.828 48.5893 9.828 48.312V44.92ZM22.989 40.616H22.909C22.7703 41.032 22.5997 41.5173 22.397 42.072C22.205 42.616 22.0077 43.1867 21.805 43.784C21.6023 44.3707 21.4103 44.9253 21.229 45.448L21.085 46.088C21.021 46.28 20.9463 46.5093 20.861 46.776C20.7757 47.0427 20.685 47.32 20.589 47.608C20.5037 47.8853 20.4183 48.1467 20.333 48.392C20.2477 48.6373 20.1837 48.8453 20.141 49.016C20.045 49.048 19.9437 49.0747 19.837 49.096C19.741 49.128 19.6183 49.144 19.469 49.144C19.213 49.144 18.9997 49.0853 18.829 48.968C18.6583 48.8507 18.573 48.6747 18.573 48.44C18.573 48.3333 18.589 48.2267 18.621 48.12C18.6637 48.0027 18.7063 47.8747 18.749 47.736C18.8663 47.3733 19.0157 46.9307 19.197 46.408C19.3783 45.8747 19.581 45.2987 19.805 44.68C20.029 44.0613 20.2583 43.4373 20.493 42.808C20.7277 42.168 20.9517 41.5547 21.165 40.968C21.389 40.3813 21.5863 39.8693 21.757 39.432C21.8637 39.3787 22.029 39.3253 22.253 39.272C22.477 39.208 22.701 39.176 22.925 39.176C23.2237 39.176 23.4957 39.2187 23.741 39.304C23.997 39.3893 24.157 39.5333 24.221 39.736C24.4663 40.3333 24.7223 41.0213 24.989 41.8C25.2663 42.568 25.5437 43.368 25.821 44.2C26.109 45.032 26.381 45.8427 26.637 46.632C26.893 47.4213 27.1223 48.136 27.325 48.776C27.2397 48.8827 27.117 48.968 26.957 49.032C26.797 49.096 26.621 49.128 26.429 49.128C26.141 49.128 25.933 49.0747 25.805 48.968C25.677 48.8507 25.5703 48.6693 25.485 48.424L24.733 46.088L24.557 45.336C24.365 44.7387 24.1677 44.1467 23.965 43.56C23.773 42.9627 23.5917 42.4133 23.421 41.912C23.2503 41.4 23.1063 40.968 22.989 40.616ZM20.317 46.552L20.909 45.208H25.133L25.405 46.552H20.317ZM33.0283 48.824C32.9536 48.888 32.8203 48.9467 32.6283 49C32.4363 49.064 32.2283 49.096 32.0043 49.096C31.7376 49.096 31.5029 49.0587 31.3003 48.984C31.1083 48.9093 30.9749 48.7973 30.9003 48.648C30.7403 48.328 30.5483 47.9013 30.3243 47.368C30.1003 46.824 29.8603 46.216 29.6043 45.544C29.3483 44.872 29.0923 44.184 28.8363 43.48C28.5909 42.776 28.3616 42.088 28.1483 41.416C27.9349 40.744 27.7536 40.1413 27.6043 39.608C27.6896 39.5013 27.8123 39.4053 27.9723 39.32C28.1429 39.2347 28.3296 39.192 28.5323 39.192C28.7776 39.192 28.9643 39.2507 29.0923 39.368C29.2309 39.4853 29.3429 39.6667 29.4283 39.912C29.8443 41.2133 30.2549 42.4773 30.6603 43.704C31.0656 44.9307 31.5083 46.1733 31.9883 47.432H32.0523C32.3296 46.6533 32.6176 45.816 32.9163 44.92C33.2256 44.024 33.5243 43.1013 33.8123 42.152C34.1003 41.2027 34.3563 40.2747 34.5803 39.368C34.6869 39.304 34.7989 39.2613 34.9163 39.24C35.0443 39.208 35.1829 39.192 35.3323 39.192C35.5776 39.192 35.7749 39.2507 35.9243 39.368C36.0843 39.4853 36.1643 39.6667 36.1643 39.912C36.1643 40.0827 36.1056 40.392 35.9883 40.84C35.8816 41.2773 35.7269 41.7947 35.5243 42.392C35.3322 42.9787 35.1189 43.5973 34.8843 44.248C34.6603 44.888 34.4256 45.5173 34.1803 46.136C33.9456 46.744 33.7269 47.2827 33.5243 47.752C33.3323 48.2213 33.1669 48.5787 33.0283 48.824ZM38.0155 42.84H39.6635V48.872C39.6102 48.8933 39.5088 48.9253 39.3595 48.968C39.2208 49 39.0715 49.016 38.9115 49.016C38.6448 49.016 38.4262 48.9307 38.2555 48.76C38.0955 48.5893 38.0155 48.3707 38.0155 48.104V42.84ZM39.6635 45.384L38.0155 45.368V40.184C38.0155 39.9067 38.0955 39.688 38.2555 39.528C38.4262 39.3573 38.6448 39.272 38.9115 39.272C39.0715 39.272 39.2208 39.288 39.3595 39.32C39.5088 39.352 39.6102 39.384 39.6635 39.416V45.384ZM38.9115 44.696V43.336H43.7435C43.7862 43.4 43.8235 43.4907 43.8555 43.608C43.8982 43.7253 43.9195 43.8533 43.9195 43.992C43.9195 44.216 43.8662 44.392 43.7595 44.52C43.6528 44.6373 43.5035 44.696 43.3115 44.696H38.9115ZM38.9115 49.016V47.64H44.3035C44.3462 47.704 44.3835 47.7947 44.4155 47.912C44.4582 48.0293 44.4795 48.1573 44.4795 48.296C44.4795 48.52 44.4262 48.696 44.3195 48.824C44.2128 48.952 44.0635 49.016 43.8715 49.016H38.9115ZM38.9115 40.648V39.272H44.2235C44.2662 39.336 44.3035 39.4267 44.3355 39.544C44.3782 39.6613 44.3995 39.7893 44.3995 39.928C44.3995 40.152 44.3462 40.328 44.2395 40.456C44.1328 40.584 43.9835 40.648 43.7915 40.648H38.9115ZM46.578 42.968H48.258V48.872L47.474 49.016C47.2073 49.016 46.9887 48.9307 46.818 48.76C46.658 48.5893 46.578 48.3707 46.578 48.104V42.968ZM47.474 49.016V47.608H52.626C52.6793 47.672 52.7273 47.7627 52.77 47.88C52.8127 47.9973 52.834 48.1307 52.834 48.28C52.834 48.5147 52.7753 48.696 52.658 48.824C52.5407 48.952 52.386 49.016 52.194 49.016H47.474ZM48.258 44.616H46.578V39.288C46.6527 39.2667 46.7593 39.2453 46.898 39.224C47.0473 39.192 47.202 39.176 47.362 39.176C47.6713 39.176 47.8953 39.2347 48.034 39.352C48.1833 39.4587 48.258 39.656 48.258 39.944V44.616ZM63.0756 43.336V44.616H58.9476V43.336H63.0756ZM61.4436 44.616L61.8436 43.64C62.6223 43.64 63.2676 43.7573 63.7796 43.992C64.3023 44.216 64.6916 44.5253 64.9476 44.92C65.2036 45.3147 65.3316 45.7627 65.3316 46.264C65.3316 47.256 64.969 47.992 64.2436 48.472C63.529 48.952 62.505 49.192 61.1716 49.192C60.8943 49.192 60.6063 49.1813 60.3076 49.16C60.009 49.1493 59.7103 49.1173 59.4116 49.064C59.113 49.0213 58.8303 48.9627 58.5636 48.888C58.0836 48.7387 57.8436 48.456 57.8436 48.04V40.04C57.8436 39.848 57.8916 39.704 57.9876 39.608C58.0943 39.5013 58.2383 39.4213 58.4196 39.368C58.7823 39.2613 59.1823 39.1867 59.6196 39.144C60.0676 39.1013 60.537 39.08 61.0276 39.08C62.2756 39.08 63.241 39.2987 63.9236 39.736C64.617 40.1733 64.9636 40.8453 64.9636 41.752C64.9636 42.2213 64.841 42.6427 64.5956 43.016C64.3503 43.3893 63.9716 43.6827 63.4596 43.896C62.9476 44.1093 62.2863 44.216 61.4756 44.216L61.3316 43.336C61.9823 43.336 62.4676 43.208 62.7876 42.952C63.1076 42.6853 63.2676 42.312 63.2676 41.832C63.2676 41.3627 63.081 41.0107 62.7076 40.776C62.3343 40.5307 61.7796 40.408 61.0436 40.408C60.7343 40.408 60.4463 40.4187 60.1796 40.44C59.9236 40.4613 59.6943 40.4933 59.4916 40.536V47.688C59.7156 47.7413 59.9823 47.784 60.2916 47.816C60.6116 47.8373 60.921 47.848 61.2196 47.848C61.9983 47.848 62.5903 47.7147 62.9956 47.448C63.4116 47.1813 63.6196 46.7707 63.6196 46.216C63.6196 45.7147 63.433 45.3253 63.0596 45.048C62.697 44.76 62.1583 44.616 61.4436 44.616ZM67.4999 42.968H69.1799V48.872L68.3959 49.016C68.1292 49.016 67.9105 48.9307 67.7399 48.76C67.5799 48.5893 67.4999 48.3707 67.4999 48.104V42.968ZM68.3959 49.016V47.608H73.5479C73.6012 47.672 73.6492 47.7627 73.6919 47.88C73.7345 47.9973 73.7559 48.1307 73.7559 48.28C73.7559 48.5147 73.6972 48.696 73.5799 48.824C73.4625 48.952 73.3079 49.016 73.1159 49.016H68.3959ZM69.1799 44.616H67.4999V39.288C67.5745 39.2667 67.6812 39.2453 67.8199 39.224C67.9692 39.192 68.1239 39.176 68.2839 39.176C68.5932 39.176 68.8172 39.2347 68.9559 39.352C69.1052 39.4587 69.1799 39.656 69.1799 39.944V44.616ZM84.038 44.136C84.038 45.2453 83.83 46.1787 83.414 46.936C82.998 47.6933 82.4327 48.264 81.718 48.648C81.0033 49.032 80.1927 49.224 79.286 49.224C78.39 49.224 77.5793 49.032 76.854 48.648C76.1393 48.264 75.574 47.6933 75.158 46.936C74.742 46.1787 74.534 45.2453 74.534 44.136C74.534 43.0267 74.7473 42.0933 75.174 41.336C75.6007 40.5787 76.1713 40.008 76.886 39.624C77.6007 39.24 78.4007 39.048 79.286 39.048C80.182 39.048 80.9873 39.24 81.702 39.624C82.4167 40.008 82.982 40.5787 83.398 41.336C83.8247 42.0933 84.038 43.0267 84.038 44.136ZM82.31 44.136C82.31 42.9413 82.0327 42.0293 81.478 41.4C80.934 40.76 80.2033 40.44 79.286 40.44C78.3793 40.44 77.6487 40.76 77.094 41.4C76.5393 42.0293 76.262 42.9413 76.262 44.136C76.262 45.3307 76.534 46.248 77.078 46.888C77.6327 47.5173 78.3687 47.832 79.286 47.832C80.214 47.832 80.95 47.5173 81.494 46.888C82.038 46.248 82.31 45.3307 82.31 44.136ZM94.1398 44.344V47.768C94.1398 47.992 94.0811 48.1787 93.9638 48.328C93.8571 48.4667 93.6864 48.5947 93.4518 48.712C93.1744 48.8507 92.7904 48.968 92.2998 49.064C91.8091 49.1707 91.3131 49.224 90.8118 49.224C89.8091 49.224 88.9131 49.048 88.1238 48.696C87.3451 48.3333 86.7318 47.7787 86.2838 47.032C85.8464 46.2747 85.6278 45.3147 85.6278 44.152C85.6278 43.0213 85.8571 42.0773 86.3158 41.32C86.7744 40.5627 87.3824 39.9973 88.1398 39.624C88.9078 39.24 89.7451 39.048 90.6518 39.048C91.2811 39.048 91.8304 39.1173 92.2998 39.256C92.7691 39.384 93.1318 39.5547 93.3878 39.768C93.6438 39.9707 93.7718 40.1893 93.7718 40.424C93.7718 40.5947 93.7238 40.7493 93.6278 40.888C93.5318 41.0267 93.4144 41.128 93.2758 41.192C92.9984 41.0107 92.6571 40.84 92.2518 40.68C91.8571 40.52 91.3611 40.44 90.7638 40.44C90.1238 40.44 89.5424 40.584 89.0198 40.872C88.5078 41.1493 88.1024 41.5653 87.8038 42.12C87.5051 42.6747 87.3558 43.352 87.3558 44.152C87.3558 44.9947 87.5051 45.688 87.8038 46.232C88.1131 46.776 88.5291 47.1813 89.0518 47.448C89.5744 47.704 90.1664 47.832 90.8278 47.832C91.1798 47.832 91.5051 47.8053 91.8038 47.752C92.1024 47.688 92.3371 47.6133 92.5078 47.528V44.936H90.2678C90.2251 44.872 90.1824 44.7813 90.1398 44.664C90.1078 44.5467 90.0918 44.424 90.0918 44.296C90.0918 44.0613 90.1451 43.8853 90.2518 43.768C90.3584 43.6507 90.5078 43.592 90.6998 43.592H93.3718C93.5958 43.592 93.7771 43.6613 93.9158 43.8C94.0651 43.928 94.1398 44.1093 94.1398 44.344Z" fill="black"/>
<path d="M33 6C33 4.67392 33.5268 3.40215 34.4645 2.46447C35.4021 1.52678 36.6739 1 38 1H58C58.6566 1 59.3068 1.12933 59.9134 1.3806C60.52 1.63188 61.0712 2.00017 61.5355 2.46447C61.9998 2.92876 62.3681 3.47995 62.6194 4.08658C62.8707 4.69321 63 5.34339 63 6V26C63 27.3261 62.4732 28.5979 61.5355 29.5355C60.5979 30.4732 59.3261 31 58 31H38C37.3434 31 36.6932 30.8707 36.0866 30.6194C35.48 30.3681 34.9288 29.9998 34.4645 29.5355C33.5268 28.5979 33 27.3261 33 26V6ZM38 3C37.2044 3 36.4413 3.31607 35.8787 3.87868C35.3161 4.44129 35 5.20435 35 6V18.695C35.3925 18.5204 35.8268 18.4617 36.2516 18.5261C36.6763 18.5904 37.0738 18.775 37.397 19.058L39.821 21.179L40.757 20.243L39.707 19.686C39.2489 19.4427 38.9033 19.031 38.743 18.5377C38.5827 18.0443 38.6204 17.5081 38.848 17.042L39.374 15.965C39.4406 15.8284 39.4753 15.6785 39.4753 15.5265C39.4753 15.3745 39.4406 15.2246 39.374 15.088L38.848 14.011C38.6205 13.5448 38.583 13.0084 38.7434 12.5151C38.9039 12.0218 39.2497 11.6101 39.708 11.367L40.763 10.806C40.8973 10.7347 41.0136 10.6337 41.1031 10.5106C41.1925 10.3876 41.2526 10.2458 41.279 10.096L41.486 8.916C41.5758 8.40498 41.8607 7.94888 42.2806 7.64399C42.7004 7.33911 43.2223 7.20931 43.736 7.282L44.916 7.449C45.0669 7.47035 45.2206 7.45694 45.3655 7.4098C45.5104 7.36266 45.6426 7.28303 45.752 7.177L46.609 6.347C46.982 5.98593 47.4808 5.78405 48 5.78405C48.5192 5.78405 49.018 5.98593 49.391 6.347L50.248 7.177C50.3574 7.28303 50.4896 7.36266 50.6345 7.4098C50.7794 7.45694 50.9331 7.47035 51.084 7.449L52.264 7.282C52.7779 7.20933 53.2999 7.33927 53.7197 7.64436C54.1396 7.94945 54.4244 8.4058 54.514 8.917L54.721 10.095C54.7474 10.2448 54.8075 10.3866 54.8969 10.5096C54.9864 10.6327 55.1027 10.7337 55.237 10.805L56.293 11.367C56.7508 11.6103 57.0963 12.0219 57.2565 12.5149C57.4168 13.008 57.3793 13.544 57.152 14.01L56.626 15.088C56.5594 15.2246 56.5247 15.3745 56.5247 15.5265C56.5247 15.6785 56.5594 15.8284 56.626 15.965L57.152 17.042C57.3795 17.5082 57.417 18.0446 57.2566 18.5379C57.0961 19.0312 56.7503 19.4429 56.292 19.686L55.243 20.243L56.533 21.533L58.933 19.434C59.214 19.1884 59.5661 19.039 59.9379 19.0077C60.3098 18.9764 60.6819 19.0648 61 19.26V6C61 5.20435 60.6839 4.44129 60.1213 3.87868C59.5587 3.31607 58.7956 3 58 3H38ZM55.5 15.5C55.4995 14.3423 55.2311 13.2003 54.7156 12.1637C54.2001 11.127 53.4516 10.2238 52.5288 9.52466C51.606 8.82557 50.5338 8.34961 49.3963 8.13407C48.2588 7.91853 47.0868 7.96926 45.9722 8.28229C44.8576 8.59531 43.8305 9.16214 42.9716 9.93836C42.1126 10.7146 41.4449 11.6791 41.021 12.7565C40.597 13.8338 40.4282 14.9946 40.5278 16.1481C40.6274 17.3015 40.9927 18.4163 41.595 19.405L46.303 14.697C46.5257 14.4739 46.7902 14.2969 47.0814 14.1762C47.3726 14.0554 47.6848 13.9933 48 13.9933C48.3152 13.9933 48.6274 14.0554 48.9186 14.1762C49.2098 14.2969 49.4743 14.4739 49.697 14.697L54.405 19.405C55.1234 18.2293 55.5024 16.8778 55.5 15.5ZM35 26L39.112 21.888L36.738 19.81C36.5223 19.6213 36.2483 19.5125 35.962 19.5018C35.6756 19.4911 35.3942 19.579 35.165 19.751L35 19.875V26ZM54.586 29L50.732 25.146C50.6385 25.0528 50.512 25.0003 50.38 25H49.5C48.837 25 48.2011 24.7366 47.7322 24.2678C47.2634 23.7989 47 23.163 47 22.5V15.414L35.239 27.175C35.4298 27.6209 35.7255 28.0141 36.1008 28.3212C36.4762 28.6283 36.9202 28.8403 37.395 28.939C37.5941 28.9795 37.7968 29 38 29H54.586Z" fill="#F9D44A"/>
</svg>
